<?xml version="1.0" standalone="no"?>
<!DOCTYPE svg PUBLIC "-//W3C//DTD SVG 20010904//EN" "http://www.w3.org/TR/2001/REC-SVG-20010904/DTD/svg10.dtd">
<svg version="1.0" xmlns="http://www.w3.org/2000/svg"
    width="540.000000pt" height="360.000000pt" viewBox="0 0 540.000000 360.000000"
    preserveAspectRatio="xMidYMid meet">

    <g transform="translate(0.000000,360.000000) scale(0.100000,-0.100000)"
        fill="#000000" stroke="none">
        <path
            d="M0 1800 l0 -1800 2700 0 2700 0 0 1800 0 1800 -2700 0 -2700 0 0
-1800z m2881 634 c54 -31 99 -59 99 -63 0 -3 -64 -43 -143 -87 -78 -45 -263
-152 -412 -238 l-270 -156 -3 117 c-2 85 1 120 10 128 7 7 123 75 258 152 135
77 268 154 295 171 28 17 54 31 58 31 5 1 54 -24 108 -55z m-133 -760 c-7 -6
-121 -73 -252 -149 -176 -101 -243 -135 -256 -128 -47 23 -190 109 -189 113 0
3 158 96 352 207 l352 202 3 -116 c2 -85 -1 -120 -10 -129z m602 -96 l0 -123
-48 -26 c-26 -14 -163 -92 -304 -173 l-257 -149 -85 49 c-96 55 -122 72 -115
77 2 2 155 91 339 197 184 106 364 210 400 231 36 22 66 39 68 39 1 0 2 -55 2
-122z" />
    </g>
</svg>